<svg width="152" height="152" viewBox="0 0 152 152" fill="none" xmlns="http://www.w3.org/2000/svg">
<path d="M118.472 58.0731C116.147 52.5892 112.839 47.6567 108.607 43.4394C104.375 39.2072 99.4571 35.8841 93.9731 33.5743C88.2955 31.1751 82.2602 29.9531 76.0461 29.9531C69.832 29.9531 63.7967 31.1751 58.119 33.5743C52.6351 35.899 47.7026 39.2072 43.4853 43.4394C39.2531 47.6716 35.93 52.5892 33.6202 58.0731C31.221 63.7508 29.999 69.7861 29.999 76.0002C29.999 82.2143 31.221 88.2496 33.6202 93.9272C35.9449 99.4112 39.2531 104.344 43.4853 108.561C47.7175 112.793 52.6351 116.116 58.119 118.426C63.7967 120.825 69.832 122.047 76.0461 122.047C82.2602 122.047 88.2955 120.825 93.9731 118.426C99.4571 116.101 104.39 112.793 108.607 108.561C112.839 104.329 116.162 99.4112 118.472 93.9272C120.871 88.2496 122.093 82.2143 122.093 76.0002C122.093 69.7861 120.871 63.7508 118.472 58.0731ZM70.1747 104.21L57.9402 93.7037L46.1677 83.6002L56.6437 71.3955L67.4775 80.6943L92.93 47.7908L105.91 57.2833L70.1747 104.21Z" fill="#3BCC83"/>
<path d="M152 76.0298L143.506 62.6031L146.218 46.9561L133.253 37.7765L129.751 22.2784L114.253 18.7765L105.118 5.81176L89.4565 8.49412L76.0298 0L62.6031 8.49412L46.9561 5.78196L37.7765 18.7467L22.2784 22.2486L18.7765 37.7467L5.81176 46.8816L8.49412 62.5435L0 75.9702L8.49412 89.3969L5.78196 105.044L18.7467 114.224L22.2486 129.722L37.7467 133.224L46.8965 146.203L62.5584 143.521L75.9851 152L89.4118 143.506L105.059 146.218L114.238 133.253L129.736 129.751L133.238 114.253L146.218 105.104L143.536 89.4416L152 76.0298ZM76 130.035C46.1514 130.035 21.9655 105.834 21.9655 76C21.9655 46.1663 46.1514 21.9655 76 21.9655C105.849 21.9655 130.035 46.1514 130.035 76C130.035 105.849 105.849 130.035 76 130.035Z" fill="#3BCC83"/>
</svg>
